M48
;GenerationSoftware,Autodesk,EAGLE,9.2.0*%
;CreationDate,2018-12-27T00:28:55Z*%
FMAT,2
ICI,OFF
METRIC,TZ,000.000
T6C0.350
T5C0.990
T4C1.016
T3C1.600
T2C3.810
T1C4.500
%
G90
M71
T1
X11942Y15240
X4822Y15240
X77521Y22712
X77521Y15592
T2
X4064Y29591
X4064Y4064
X78486Y4064
X78486Y29591
T3
X45843Y6272
X45843Y2872
X59313Y6272
X59313Y2872
T4
X61722Y27559
X59182Y27559
X56642Y27559
X24892Y19304
X24892Y16764
X24892Y14224
X61722Y31115
X70891Y27534
X70891Y31115
X68351Y31115
X65811Y31115
X68351Y27534
X65811Y27534
X59182Y31115
X56642Y31115
X67546Y9670
X71443Y5773
X13884Y26670
X9110Y23914
T5
X40250Y13654
X37500Y13654
X40250Y15524
X37500Y15524
X40250Y17924
X37500Y17924
X40250Y19794
X37500Y19794
X40250Y21664
X37500Y21664
X40250Y23534
X37500Y23534
X40250Y25924
X37500Y25924
X40250Y27794
X37500Y27794
X40250Y29664
X37500Y29664
X40250Y31534
X37500Y31534
X18510Y14724
X21260Y14724
X18510Y16724
X21260Y16724
X18510Y18724
X21260Y18724
X18510Y21934
X21260Y21934
X18510Y23724
X21260Y23854
X18510Y25764
X21260Y25764
X18510Y27684
X21260Y27684
X18510Y29594
X21260Y29594
X18510Y31514
X21260Y31514
X37500Y11784
X40250Y11784
X37500Y9914
X40250Y9914
X37500Y7524
X40250Y7524
X37500Y5654
X40250Y5654
X37500Y3784
X40250Y3784
X37500Y1914
X40250Y1914
X21260Y9034
X18510Y9034
X21260Y7244
X18491Y7244
X21260Y5454
X18510Y5454
X21260Y3664
X18510Y3664
X21260Y1874
X18510Y1874
T6
X71247Y17526
X46990Y12040
M30